<svg width="1028" height="1028" viewBox="0 0 1028 1028" fill="none" xmlns="http://www.w3.org/2000/svg">
<g clip-path="url(#clip0_148_11)">
<rect width="1028" height="1028" rx="50" fill="#0277F8"/>
<path d="M15.8906 465L86.8911 615C12.515 855.158 -51.1022 957.606 148.878 1142.5H909.378C1057.85 960.585 1022.96 816.076 944.879 592L1010.89 465L736.891 592C736.891 592 602.891 564.5 534.891 564.5C466.891 564.5 329.891 592 329.891 592L15.8906 465Z" fill="white"/>
<circle cx="268.5" cy="846.5" r="126.5" fill="black"/>
<circle cx="786.5" cy="846.5" r="126.5" fill="black"/>
<path d="M527.5 1059L469.043 920.25L585.957 920.25L527.5 1059Z" fill="#FFD579"/>
<path d="M526 920.5H469L526 1066V920.5Z" fill="#E5BA5D"/>
</g>
<defs>
<clipPath id="clip0_148_11">
<rect width="1028" height="1028" rx="50" fill="white"/>
</clipPath>
</defs>
</svg>
