<svg width="3084" height="2056" viewBox="0 0 3084 2056" fill="none" xmlns="http://www.w3.org/2000/svg">
<g clip-path="url(#clip0_177_66)">
<rect width="1028" height="1028" rx="50" fill="#0277F8"/>
<path d="M113 195L170.272 315.996C110.277 509.718 70.4341 613.244 247.394 741.5C352.572 791.261 410.408 821.958 531.647 832.5C639.221 819.287 682.198 782.191 773.728 741.5C936.266 654.786 939.896 484.988 862.361 297.444L915.609 195L694.589 297.444C694.589 297.444 586.499 275.261 531.647 275.261C476.796 275.261 366.286 297.444 366.286 297.444L113 195Z" fill="white"/>
<circle cx="318" cy="503" r="102" fill="black"/>
<circle cx="735" cy="503" r="102" fill="black"/>
<path d="M526.5 674L479.302 562.25L573.698 562.25L526.5 674Z" fill="#FFD579"/>
<path d="M526 562H479L526 674V562Z" fill="#E5BA5D"/>
<rect y="1028" width="1028" height="1028" rx="50" fill="#FC5A49"/>
<path d="M113 1269L170.272 1390C110.277 1583.72 70.4341 1687.24 247.394 1815.5C352.572 1865.26 410.408 1895.96 531.647 1906.5C639.221 1893.29 682.198 1856.19 773.728 1815.5C936.266 1728.79 939.896 1558.99 862.361 1371.44L915.609 1269L694.589 1371.44C694.589 1371.44 586.499 1349.26 531.647 1349.26C476.796 1349.26 366.286 1371.44 366.286 1371.44L113 1269Z" fill="white"/>
<circle cx="318" cy="1577" r="102" fill="black"/>
<circle cx="735" cy="1577" r="102" fill="black"/>
<path d="M526.5 1748L479.302 1636.25L573.698 1636.25L526.5 1748Z" fill="#FFD579"/>
<path d="M526 1636H479L526 1748V1636Z" fill="#E5BA5D"/>
<rect x="1028" y="1028" width="1028" height="1028" rx="50" fill="#D3ADF7"/>
<path d="M1141 1269L1198.27 1390C1138.28 1583.72 1098.43 1687.24 1275.39 1815.5C1380.57 1865.26 1438.41 1895.96 1559.65 1906.5C1667.22 1893.29 1710.2 1856.19 1801.73 1815.5C1964.27 1728.79 1967.9 1558.99 1890.36 1371.44L1943.61 1269L1722.59 1371.44C1722.59 1371.44 1614.5 1349.26 1559.65 1349.26C1504.8 1349.26 1394.29 1371.44 1394.29 1371.44L1141 1269Z" fill="#FC5A49"/>
<circle cx="1346" cy="1577" r="102" fill="white"/>
<circle cx="1763" cy="1577" r="102" fill="white"/>
<path d="M1554.5 1748L1507.3 1636.25L1601.7 1636.25L1554.5 1748Z" fill="#FFD579"/>
<path d="M1554 1636H1507L1554 1748V1636Z" fill="#E5BA5D"/>
<rect x="2056" y="1028" width="1028" height="1028" rx="50" fill="#FFD579"/>
<path d="M2169 1223L2226.27 1344C2166.28 1537.72 2126.43 1641.24 2303.39 1769.5C2408.57 1819.26 2466.41 1849.96 2587.65 1860.5C2695.22 1847.29 2738.2 1810.19 2829.73 1769.5C2992.27 1682.79 2995.9 1512.99 2918.36 1325.44L2971.61 1223L2750.59 1325.44C2750.59 1325.44 2642.5 1303.26 2587.65 1303.26C2532.8 1303.26 2422.29 1325.44 2422.29 1325.44L2169 1223Z" fill="white"/>
<circle cx="2374" cy="1531" r="102" fill="black"/>
<circle cx="2791" cy="1531" r="102" fill="black"/>
<path d="M2582.5 1702L2535.3 1590.25L2629.7 1590.25L2582.5 1702Z" fill="#FFD579"/>
<path d="M2582 1590H2535L2582 1702V1590Z" fill="#E5BA5D"/>
<rect x="2056" width="1028" height="1028" rx="50" fill="#FC5A49"/>
<path d="M2169 241L2226.27 361.996C2166.28 555.718 2126.43 659.244 2303.39 787.5C2408.57 837.261 2466.41 867.958 2587.65 878.5C2695.22 865.287 2738.2 828.191 2829.73 787.5C2992.27 700.786 2995.9 530.988 2918.36 343.444L2971.61 241L2750.59 343.444C2750.59 343.444 2642.5 321.261 2587.65 321.261C2532.8 321.261 2422.29 343.444 2422.29 343.444L2169 241Z" fill="black"/>
<circle cx="2374" cy="549" r="102" fill="white"/>
<circle cx="2791" cy="549" r="102" fill="white"/>
<path d="M2582.5 720L2535.3 608.25L2629.7 608.25L2582.5 720Z" fill="#FFD579"/>
<path d="M2582 608H2535L2582 720V608Z" fill="#E5BA5D"/>
<rect x="1028" width="1028" height="1028" rx="50" fill="#C8FB25"/>
<path d="M1141 241L1198.27 361.996C1138.28 555.718 1098.43 659.244 1275.39 787.5C1380.57 837.261 1438.41 867.958 1559.65 878.5C1667.22 865.287 1710.2 828.191 1801.73 787.5C1964.27 700.786 1967.9 530.988 1890.36 343.444L1943.61 241L1722.59 343.444C1722.59 343.444 1614.5 321.261 1559.65 321.261C1504.8 321.261 1394.29 343.444 1394.29 343.444L1141 241Z" fill="black"/>
<circle cx="1346" cy="549" r="102" fill="white"/>
<circle cx="1763" cy="549" r="102" fill="white"/>
<path d="M1554.5 720L1507.3 608.25L1601.7 608.25L1554.5 720Z" fill="#FFD579"/>
<path d="M1554 608H1507L1554 720V608Z" fill="#E5BA5D"/>
</g>
<defs>
<clipPath id="clip0_177_66">
<rect width="3084" height="2056" rx="50" fill="white"/>
</clipPath>
</defs>
</svg>
