<svg width="1028" height="1028" viewBox="0 0 1028 1028" fill="none" xmlns="http://www.w3.org/2000/svg">
<path d="M366.862 293.761C366.781 293.777 366.703 293.792 366.629 293.807L114.312 191.755L106.001 188.394L109.836 196.497L166.526 316.262C164.624 322.397 162.743 328.445 160.888 334.408C148.279 374.939 136.88 411.58 128.725 445.35C119.28 484.459 114.118 519.967 116.484 553.544C121.241 621.056 156.356 679.84 245.34 744.334L245.603 744.525L245.897 744.664C252.631 747.85 259.173 750.959 265.552 753.99C358.782 798.295 417.214 826.063 531.344 835.987L531.71 836.019L532.074 835.974C611.184 826.257 655.955 803.572 709.781 776.3C729.617 766.249 750.682 755.576 775.15 744.698L775.265 744.647L775.376 744.588C857.615 700.713 899.835 635.636 911.533 557.803C923.137 480.6 904.681 391.128 866.217 297.614L918.714 196.614L923.447 187.509L914.137 191.825L694.16 293.785C694.125 293.778 694.09 293.771 694.054 293.764C693.245 293.6 692.053 293.361 690.518 293.057C687.446 292.449 683 291.58 677.494 290.539C666.483 288.455 651.228 285.677 634.253 282.898C600.383 277.354 559.391 271.761 531.647 271.761C503.908 271.761 462.313 277.353 427.842 282.897C410.565 285.675 395.009 288.453 383.772 290.536C378.153 291.578 373.613 292.446 370.476 293.054C368.907 293.358 367.689 293.598 366.862 293.761Z" fill="black" stroke="white" stroke-width="7"/>
<circle cx="318" cy="503" r="102" fill="white"/>
<circle cx="735" cy="503" r="102" fill="white"/>
<path d="M526.5 674L479.302 562.25L573.698 562.25L526.5 674Z" fill="#FFD579"/>
<path d="M526 562H479L526 674V562Z" fill="#E5BA5D"/>
</svg>
